<svg xmlns="http://www.w3.org/2000/svg" viewBox="0 0 800 600" width="800" height="600" role="img" aria-label="Conference event">
  <defs>
    <linearGradient id="bg-conference-1" x1="0" y1="0" x2="1" y2="1">
      <stop offset="0" stop-color="#1e3a8a"/>
      <stop offset="0.55" stop-color="#2563eb"/>
      <stop offset="1" stop-color="#4f46e5"/>
    </linearGradient>
    <radialGradient id="glow-conference-1" cx="0.5" cy="0.5" r="0.5">
      <stop offset="0" stop-color="#ffffff" stop-opacity="0.55"/>
      <stop offset="1" stop-color="#ffffff" stop-opacity="0"/>
    </radialGradient>
    <linearGradient id="sheen-conference-1" x1="0" y1="0" x2="0" y2="1">
      <stop offset="0" stop-color="#ffffff" stop-opacity="0.18"/>
      <stop offset="0.5" stop-color="#ffffff" stop-opacity="0"/>
      <stop offset="1" stop-color="#000000" stop-opacity="0.28"/>
    </linearGradient>
    <filter id="soft-conference-1" x="-50%" y="-50%" width="200%" height="200%">
      <feGaussianBlur stdDeviation="60"/>
    </filter>
    <filter id="grain-conference-1">
      <feTurbulence type="fractalNoise" baseFrequency="0.9" numOctaves="2" stitchTiles="stitch" result="n"/>
      <feColorMatrix in="n" type="saturate" values="0"/>
    </filter>
    <clipPath id="clip-conference-1"><rect width="800" height="600"/></clipPath>
  </defs>

  <g clip-path="url(#clip-conference-1)">
    <rect width="800" height="600" fill="url(#bg-conference-1)"/>
    <circle cx="640" cy="130" r="260" fill="url(#glow-conference-1)" filter="url(#soft-conference-1)"/>
    <circle cx="120" cy="520" r="220" fill="url(#glow-conference-1)" filter="url(#soft-conference-1)" opacity="0.7"/>
    <g opacity="0.9"><circle cx="0" cy="0" r="2.2" fill="#ffffff" opacity="0.12"/><circle cx="0" cy="60" r="2.2" fill="#ffffff" opacity="0.12"/><circle cx="0" cy="120" r="2.2" fill="#ffffff" opacity="0.12"/><circle cx="0" cy="180" r="2.2" fill="#ffffff" opacity="0.12"/><circle cx="0" cy="240" r="2.2" fill="#ffffff" opacity="0.12"/><circle cx="0" cy="300" r="2.2" fill="#ffffff" opacity="0.12"/><circle cx="0" cy="360" r="2.2" fill="#ffffff" opacity="0.12"/><circle cx="0" cy="420" r="2.2" fill="#ffffff" opacity="0.12"/><circle cx="0" cy="480" r="2.2" fill="#ffffff" opacity="0.12"/><circle cx="0" cy="540" r="2.2" fill="#ffffff" opacity="0.12"/><circle cx="0" cy="600" r="2.2" fill="#ffffff" opacity="0.12"/><circle cx="60" cy="0" r="2.2" fill="#ffffff" opacity="0.12"/><circle cx="60" cy="60" r="2.2" fill="#ffffff" opacity="0.12"/><circle cx="60" cy="120" r="2.2" fill="#ffffff" opacity="0.12"/><circle cx="60" cy="180" r="2.2" fill="#ffffff" opacity="0.12"/><circle cx="60" cy="240" r="2.2" fill="#ffffff" opacity="0.12"/><circle cx="60" cy="300" r="2.2" fill="#ffffff" opacity="0.12"/><circle cx="60" cy="360" r="2.2" fill="#ffffff" opacity="0.12"/><circle cx="60" cy="420" r="2.2" fill="#ffffff" opacity="0.12"/><circle cx="60" cy="480" r="2.2" fill="#ffffff" opacity="0.12"/><circle cx="60" cy="540" r="2.2" fill="#ffffff" opacity="0.12"/><circle cx="60" cy="600" r="2.2" fill="#ffffff" opacity="0.12"/><circle cx="120" cy="0" r="2.2" fill="#ffffff" opacity="0.12"/><circle cx="120" cy="60" r="2.2" fill="#ffffff" opacity="0.12"/><circle cx="120" cy="120" r="2.2" fill="#ffffff" opacity="0.12"/><circle cx="120" cy="180" r="2.2" fill="#ffffff" opacity="0.12"/><circle cx="120" cy="240" r="2.2" fill="#ffffff" opacity="0.12"/><circle cx="120" cy="300" r="2.2" fill="#ffffff" opacity="0.12"/><circle cx="120" cy="360" r="2.2" fill="#ffffff" opacity="0.12"/><circle cx="120" cy="420" r="2.2" fill="#ffffff" opacity="0.12"/><circle cx="120" cy="480" r="2.2" fill="#ffffff" opacity="0.12"/><circle cx="120" cy="540" r="2.2" fill="#ffffff" opacity="0.12"/><circle cx="120" cy="600" r="2.2" fill="#ffffff" opacity="0.12"/><circle cx="180" cy="0" r="2.2" fill="#ffffff" opacity="0.12"/><circle cx="180" cy="60" r="2.2" fill="#ffffff" opacity="0.12"/><circle cx="180" cy="120" r="2.2" fill="#ffffff" opacity="0.12"/><circle cx="180" cy="180" r="2.2" fill="#ffffff" opacity="0.12"/><circle cx="180" cy="240" r="2.2" fill="#ffffff" opacity="0.12"/><circle cx="180" cy="300" r="2.2" fill="#ffffff" opacity="0.12"/><circle cx="180" cy="360" r="2.2" fill="#ffffff" opacity="0.12"/><circle cx="180" cy="420" r="2.2" fill="#ffffff" opacity="0.12"/><circle cx="180" cy="480" r="2.2" fill="#ffffff" opacity="0.12"/><circle cx="180" cy="540" r="2.2" fill="#ffffff" opacity="0.12"/><circle cx="180" cy="600" r="2.2" fill="#ffffff" opacity="0.12"/><circle cx="240" cy="0" r="2.2" fill="#ffffff" opacity="0.12"/><circle cx="240" cy="60" r="2.2" fill="#ffffff" opacity="0.12"/><circle cx="240" cy="120" r="2.2" fill="#ffffff" opacity="0.12"/><circle cx="240" cy="180" r="2.2" fill="#ffffff" opacity="0.12"/><circle cx="240" cy="240" r="2.2" fill="#ffffff" opacity="0.12"/><circle cx="240" cy="300" r="2.2" fill="#ffffff" opacity="0.12"/><circle cx="240" cy="360" r="2.2" fill="#ffffff" opacity="0.12"/><circle cx="240" cy="420" r="2.2" fill="#ffffff" opacity="0.12"/><circle cx="240" cy="480" r="2.2" fill="#ffffff" opacity="0.12"/><circle cx="240" cy="540" r="2.2" fill="#ffffff" opacity="0.12"/><circle cx="240" cy="600" r="2.2" fill="#ffffff" opacity="0.12"/><circle cx="300" cy="0" r="2.2" fill="#ffffff" opacity="0.12"/><circle cx="300" cy="60" r="2.2" fill="#ffffff" opacity="0.12"/><circle cx="300" cy="120" r="2.2" fill="#ffffff" opacity="0.12"/><circle cx="300" cy="180" r="2.2" fill="#ffffff" opacity="0.12"/><circle cx="300" cy="240" r="2.2" fill="#ffffff" opacity="0.12"/><circle cx="300" cy="300" r="2.2" fill="#ffffff" opacity="0.12"/><circle cx="300" cy="360" r="2.2" fill="#ffffff" opacity="0.12"/><circle cx="300" cy="420" r="2.2" fill="#ffffff" opacity="0.12"/><circle cx="300" cy="480" r="2.2" fill="#ffffff" opacity="0.12"/><circle cx="300" cy="540" r="2.2" fill="#ffffff" opacity="0.12"/><circle cx="300" cy="600" r="2.2" fill="#ffffff" opacity="0.12"/><circle cx="360" cy="0" r="2.2" fill="#ffffff" opacity="0.12"/><circle cx="360" cy="60" r="2.2" fill="#ffffff" opacity="0.12"/><circle cx="360" cy="120" r="2.2" fill="#ffffff" opacity="0.12"/><circle cx="360" cy="180" r="2.2" fill="#ffffff" opacity="0.12"/><circle cx="360" cy="240" r="2.2" fill="#ffffff" opacity="0.12"/><circle cx="360" cy="300" r="2.2" fill="#ffffff" opacity="0.12"/><circle cx="360" cy="360" r="2.2" fill="#ffffff" opacity="0.12"/><circle cx="360" cy="420" r="2.2" fill="#ffffff" opacity="0.12"/><circle cx="360" cy="480" r="2.2" fill="#ffffff" opacity="0.12"/><circle cx="360" cy="540" r="2.2" fill="#ffffff" opacity="0.12"/><circle cx="360" cy="600" r="2.2" fill="#ffffff" opacity="0.12"/><circle cx="420" cy="0" r="2.2" fill="#ffffff" opacity="0.12"/><circle cx="420" cy="60" r="2.2" fill="#ffffff" opacity="0.12"/><circle cx="420" cy="120" r="2.2" fill="#ffffff" opacity="0.12"/><circle cx="420" cy="180" r="2.2" fill="#ffffff" opacity="0.12"/><circle cx="420" cy="240" r="2.2" fill="#ffffff" opacity="0.12"/><circle cx="420" cy="300" r="2.2" fill="#ffffff" opacity="0.12"/><circle cx="420" cy="360" r="2.2" fill="#ffffff" opacity="0.12"/><circle cx="420" cy="420" r="2.2" fill="#ffffff" opacity="0.12"/><circle cx="420" cy="480" r="2.2" fill="#ffffff" opacity="0.12"/><circle cx="420" cy="540" r="2.2" fill="#ffffff" opacity="0.12"/><circle cx="420" cy="600" r="2.2" fill="#ffffff" opacity="0.12"/><circle cx="480" cy="0" r="2.2" fill="#ffffff" opacity="0.12"/><circle cx="480" cy="60" r="2.2" fill="#ffffff" opacity="0.12"/><circle cx="480" cy="120" r="2.2" fill="#ffffff" opacity="0.12"/><circle cx="480" cy="180" r="2.2" fill="#ffffff" opacity="0.12"/><circle cx="480" cy="240" r="2.2" fill="#ffffff" opacity="0.12"/><circle cx="480" cy="300" r="2.2" fill="#ffffff" opacity="0.12"/><circle cx="480" cy="360" r="2.2" fill="#ffffff" opacity="0.12"/><circle cx="480" cy="420" r="2.2" fill="#ffffff" opacity="0.12"/><circle cx="480" cy="480" r="2.2" fill="#ffffff" opacity="0.12"/><circle cx="480" cy="540" r="2.2" fill="#ffffff" opacity="0.12"/><circle cx="480" cy="600" r="2.2" fill="#ffffff" opacity="0.12"/><circle cx="540" cy="0" r="2.2" fill="#ffffff" opacity="0.12"/><circle cx="540" cy="60" r="2.2" fill="#ffffff" opacity="0.12"/><circle cx="540" cy="120" r="2.2" fill="#ffffff" opacity="0.12"/><circle cx="540" cy="180" r="2.2" fill="#ffffff" opacity="0.12"/><circle cx="540" cy="240" r="2.2" fill="#ffffff" opacity="0.12"/><circle cx="540" cy="300" r="2.2" fill="#ffffff" opacity="0.12"/><circle cx="540" cy="360" r="2.2" fill="#ffffff" opacity="0.12"/><circle cx="540" cy="420" r="2.2" fill="#ffffff" opacity="0.12"/><circle cx="540" cy="480" r="2.2" fill="#ffffff" opacity="0.12"/><circle cx="540" cy="540" r="2.2" fill="#ffffff" opacity="0.12"/><circle cx="540" cy="600" r="2.2" fill="#ffffff" opacity="0.12"/><circle cx="600" cy="0" r="2.2" fill="#ffffff" opacity="0.12"/><circle cx="600" cy="60" r="2.2" fill="#ffffff" opacity="0.12"/><circle cx="600" cy="120" r="2.2" fill="#ffffff" opacity="0.12"/><circle cx="600" cy="180" r="2.2" fill="#ffffff" opacity="0.12"/><circle cx="600" cy="240" r="2.2" fill="#ffffff" opacity="0.12"/><circle cx="600" cy="300" r="2.2" fill="#ffffff" opacity="0.12"/><circle cx="600" cy="360" r="2.2" fill="#ffffff" opacity="0.12"/><circle cx="600" cy="420" r="2.2" fill="#ffffff" opacity="0.12"/><circle cx="600" cy="480" r="2.2" fill="#ffffff" opacity="0.12"/><circle cx="600" cy="540" r="2.2" fill="#ffffff" opacity="0.12"/><circle cx="600" cy="600" r="2.2" fill="#ffffff" opacity="0.12"/><circle cx="660" cy="0" r="2.2" fill="#ffffff" opacity="0.12"/><circle cx="660" cy="60" r="2.2" fill="#ffffff" opacity="0.12"/><circle cx="660" cy="120" r="2.2" fill="#ffffff" opacity="0.12"/><circle cx="660" cy="180" r="2.2" fill="#ffffff" opacity="0.12"/><circle cx="660" cy="240" r="2.2" fill="#ffffff" opacity="0.12"/><circle cx="660" cy="300" r="2.2" fill="#ffffff" opacity="0.12"/><circle cx="660" cy="360" r="2.2" fill="#ffffff" opacity="0.12"/><circle cx="660" cy="420" r="2.2" fill="#ffffff" opacity="0.12"/><circle cx="660" cy="480" r="2.2" fill="#ffffff" opacity="0.12"/><circle cx="660" cy="540" r="2.2" fill="#ffffff" opacity="0.12"/><circle cx="660" cy="600" r="2.2" fill="#ffffff" opacity="0.12"/><circle cx="720" cy="0" r="2.2" fill="#ffffff" opacity="0.12"/><circle cx="720" cy="60" r="2.2" fill="#ffffff" opacity="0.12"/><circle cx="720" cy="120" r="2.2" fill="#ffffff" opacity="0.12"/><circle cx="720" cy="180" r="2.2" fill="#ffffff" opacity="0.12"/><circle cx="720" cy="240" r="2.2" fill="#ffffff" opacity="0.12"/><circle cx="720" cy="300" r="2.2" fill="#ffffff" opacity="0.12"/><circle cx="720" cy="360" r="2.2" fill="#ffffff" opacity="0.12"/><circle cx="720" cy="420" r="2.2" fill="#ffffff" opacity="0.12"/><circle cx="720" cy="480" r="2.2" fill="#ffffff" opacity="0.12"/><circle cx="720" cy="540" r="2.2" fill="#ffffff" opacity="0.12"/><circle cx="720" cy="600" r="2.2" fill="#ffffff" opacity="0.12"/><circle cx="780" cy="0" r="2.2" fill="#ffffff" opacity="0.12"/><circle cx="780" cy="60" r="2.2" fill="#ffffff" opacity="0.12"/><circle cx="780" cy="120" r="2.2" fill="#ffffff" opacity="0.12"/><circle cx="780" cy="180" r="2.2" fill="#ffffff" opacity="0.12"/><circle cx="780" cy="240" r="2.2" fill="#ffffff" opacity="0.12"/><circle cx="780" cy="300" r="2.2" fill="#ffffff" opacity="0.12"/><circle cx="780" cy="360" r="2.2" fill="#ffffff" opacity="0.12"/><circle cx="780" cy="420" r="2.2" fill="#ffffff" opacity="0.12"/><circle cx="780" cy="480" r="2.2" fill="#ffffff" opacity="0.12"/><circle cx="780" cy="540" r="2.2" fill="#ffffff" opacity="0.12"/><circle cx="780" cy="600" r="2.2" fill="#ffffff" opacity="0.12"/></g>
    <rect width="800" height="600" fill="url(#sheen-conference-1)"/>
    <rect width="800" height="600" filter="url(#grain-conference-1)" opacity="0.05"/>
    <g font-family="'Instrument Sans','Segoe UI',system-ui,sans-serif">
      <rect x="48" y="476" width="34" height="3" rx="1.5" fill="#ffffff" opacity="0.85"/>
      <text x="92" y="481" font-size="20" font-weight="600" fill="#ffffff" opacity="0.75" letter-spacing="5">EVENT</text>
      <text x="46" y="540" font-size="62" font-weight="700" fill="#ffffff" letter-spacing="-1">Conference</text>
    </g>
  </g>
</svg>