<svg xmlns="http://www.w3.org/2000/svg" viewBox="0 0 800 600" width="800" height="600" role="img" aria-label="Conference event">
  <defs>
    <linearGradient id="bg-conference-2" x1="0" y1="1" x2="1" y2="0">
      <stop offset="0" stop-color="#1e3a8a"/>
      <stop offset="0.55" stop-color="#2563eb"/>
      <stop offset="1" stop-color="#4f46e5"/>
    </linearGradient>
    <radialGradient id="glow-conference-2" cx="0.5" cy="0.5" r="0.5">
      <stop offset="0" stop-color="#ffffff" stop-opacity="0.55"/>
      <stop offset="1" stop-color="#ffffff" stop-opacity="0"/>
    </radialGradient>
    <linearGradient id="sheen-conference-2" x1="0" y1="0" x2="0" y2="1">
      <stop offset="0" stop-color="#ffffff" stop-opacity="0.18"/>
      <stop offset="0.5" stop-color="#ffffff" stop-opacity="0"/>
      <stop offset="1" stop-color="#000000" stop-opacity="0.28"/>
    </linearGradient>
    <filter id="soft-conference-2" x="-50%" y="-50%" width="200%" height="200%">
      <feGaussianBlur stdDeviation="60"/>
    </filter>
    <filter id="grain-conference-2">
      <feTurbulence type="fractalNoise" baseFrequency="0.9" numOctaves="2" stitchTiles="stitch" result="n"/>
      <feColorMatrix in="n" type="saturate" values="0"/>
    </filter>
    <clipPath id="clip-conference-2"><rect width="800" height="600"/></clipPath>
  </defs>

  <g clip-path="url(#clip-conference-2)">
    <rect width="800" height="600" fill="url(#bg-conference-2)"/>
    <circle cx="160" cy="150" r="260" fill="url(#glow-conference-2)" filter="url(#soft-conference-2)"/>
    <circle cx="660" cy="470" r="220" fill="url(#glow-conference-2)" filter="url(#soft-conference-2)" opacity="0.7"/>
    <g opacity="0.9"><circle cx="36" cy="36" r="2.2" fill="#ffffff" opacity="0.12"/><circle cx="36" cy="96" r="2.2" fill="#ffffff" opacity="0.12"/><circle cx="36" cy="156" r="2.2" fill="#ffffff" opacity="0.12"/><circle cx="36" cy="216" r="2.2" fill="#ffffff" opacity="0.12"/><circle cx="36" cy="276" r="2.2" fill="#ffffff" opacity="0.12"/><circle cx="36" cy="336" r="2.2" fill="#ffffff" opacity="0.12"/><circle cx="36" cy="396" r="2.2" fill="#ffffff" opacity="0.12"/><circle cx="36" cy="456" r="2.2" fill="#ffffff" opacity="0.12"/><circle cx="36" cy="516" r="2.2" fill="#ffffff" opacity="0.12"/><circle cx="36" cy="576" r="2.2" fill="#ffffff" opacity="0.12"/><circle cx="96" cy="36" r="2.2" fill="#ffffff" opacity="0.12"/><circle cx="96" cy="96" r="2.2" fill="#ffffff" opacity="0.12"/><circle cx="96" cy="156" r="2.2" fill="#ffffff" opacity="0.12"/><circle cx="96" cy="216" r="2.2" fill="#ffffff" opacity="0.12"/><circle cx="96" cy="276" r="2.2" fill="#ffffff" opacity="0.12"/><circle cx="96" cy="336" r="2.2" fill="#ffffff" opacity="0.12"/><circle cx="96" cy="396" r="2.2" fill="#ffffff" opacity="0.12"/><circle cx="96" cy="456" r="2.2" fill="#ffffff" opacity="0.12"/><circle cx="96" cy="516" r="2.2" fill="#ffffff" opacity="0.12"/><circle cx="96" cy="576" r="2.2" fill="#ffffff" opacity="0.12"/><circle cx="156" cy="36" r="2.2" fill="#ffffff" opacity="0.12"/><circle cx="156" cy="96" r="2.2" fill="#ffffff" opacity="0.12"/><circle cx="156" cy="156" r="2.2" fill="#ffffff" opacity="0.12"/><circle cx="156" cy="216" r="2.2" fill="#ffffff" opacity="0.12"/><circle cx="156" cy="276" r="2.2" fill="#ffffff" opacity="0.12"/><circle cx="156" cy="336" r="2.2" fill="#ffffff" opacity="0.12"/><circle cx="156" cy="396" r="2.2" fill="#ffffff" opacity="0.12"/><circle cx="156" cy="456" r="2.2" fill="#ffffff" opacity="0.12"/><circle cx="156" cy="516" r="2.2" fill="#ffffff" opacity="0.12"/><circle cx="156" cy="576" r="2.2" fill="#ffffff" opacity="0.12"/><circle cx="216" cy="36" r="2.2" fill="#ffffff" opacity="0.12"/><circle cx="216" cy="96" r="2.2" fill="#ffffff" opacity="0.12"/><circle cx="216" cy="156" r="2.2" fill="#ffffff" opacity="0.12"/><circle cx="216" cy="216" r="2.2" fill="#ffffff" opacity="0.12"/><circle cx="216" cy="276" r="2.2" fill="#ffffff" opacity="0.12"/><circle cx="216" cy="336" r="2.2" fill="#ffffff" opacity="0.12"/><circle cx="216" cy="396" r="2.2" fill="#ffffff" opacity="0.12"/><circle cx="216" cy="456" r="2.2" fill="#ffffff" opacity="0.12"/><circle cx="216" cy="516" r="2.2" fill="#ffffff" opacity="0.12"/><circle cx="216" cy="576" r="2.2" fill="#ffffff" opacity="0.12"/><circle cx="276" cy="36" r="2.2" fill="#ffffff" opacity="0.12"/><circle cx="276" cy="96" r="2.2" fill="#ffffff" opacity="0.12"/><circle cx="276" cy="156" r="2.2" fill="#ffffff" opacity="0.12"/><circle cx="276" cy="216" r="2.2" fill="#ffffff" opacity="0.12"/><circle cx="276" cy="276" r="2.2" fill="#ffffff" opacity="0.12"/><circle cx="276" cy="336" r="2.2" fill="#ffffff" opacity="0.12"/><circle cx="276" cy="396" r="2.2" fill="#ffffff" opacity="0.12"/><circle cx="276" cy="456" r="2.2" fill="#ffffff" opacity="0.12"/><circle cx="276" cy="516" r="2.2" fill="#ffffff" opacity="0.12"/><circle cx="276" cy="576" r="2.2" fill="#ffffff" opacity="0.12"/><circle cx="336" cy="36" r="2.2" fill="#ffffff" opacity="0.12"/><circle cx="336" cy="96" r="2.2" fill="#ffffff" opacity="0.12"/><circle cx="336" cy="156" r="2.2" fill="#ffffff" opacity="0.12"/><circle cx="336" cy="216" r="2.2" fill="#ffffff" opacity="0.12"/><circle cx="336" cy="276" r="2.2" fill="#ffffff" opacity="0.12"/><circle cx="336" cy="336" r="2.2" fill="#ffffff" opacity="0.12"/><circle cx="336" cy="396" r="2.2" fill="#ffffff" opacity="0.12"/><circle cx="336" cy="456" r="2.2" fill="#ffffff" opacity="0.12"/><circle cx="336" cy="516" r="2.2" fill="#ffffff" opacity="0.12"/><circle cx="336" cy="576" r="2.2" fill="#ffffff" opacity="0.12"/><circle cx="396" cy="36" r="2.2" fill="#ffffff" opacity="0.12"/><circle cx="396" cy="96" r="2.2" fill="#ffffff" opacity="0.12"/><circle cx="396" cy="156" r="2.2" fill="#ffffff" opacity="0.12"/><circle cx="396" cy="216" r="2.2" fill="#ffffff" opacity="0.12"/><circle cx="396" cy="276" r="2.2" fill="#ffffff" opacity="0.12"/><circle cx="396" cy="336" r="2.2" fill="#ffffff" opacity="0.12"/><circle cx="396" cy="396" r="2.2" fill="#ffffff" opacity="0.12"/><circle cx="396" cy="456" r="2.2" fill="#ffffff" opacity="0.12"/><circle cx="396" cy="516" r="2.2" fill="#ffffff" opacity="0.12"/><circle cx="396" cy="576" r="2.2" fill="#ffffff" opacity="0.12"/><circle cx="456" cy="36" r="2.2" fill="#ffffff" opacity="0.12"/><circle cx="456" cy="96" r="2.2" fill="#ffffff" opacity="0.12"/><circle cx="456" cy="156" r="2.2" fill="#ffffff" opacity="0.12"/><circle cx="456" cy="216" r="2.2" fill="#ffffff" opacity="0.12"/><circle cx="456" cy="276" r="2.2" fill="#ffffff" opacity="0.12"/><circle cx="456" cy="336" r="2.2" fill="#ffffff" opacity="0.12"/><circle cx="456" cy="396" r="2.2" fill="#ffffff" opacity="0.12"/><circle cx="456" cy="456" r="2.2" fill="#ffffff" opacity="0.12"/><circle cx="456" cy="516" r="2.2" fill="#ffffff" opacity="0.12"/><circle cx="456" cy="576" r="2.2" fill="#ffffff" opacity="0.12"/><circle cx="516" cy="36" r="2.2" fill="#ffffff" opacity="0.12"/><circle cx="516" cy="96" r="2.2" fill="#ffffff" opacity="0.12"/><circle cx="516" cy="156" r="2.2" fill="#ffffff" opacity="0.12"/><circle cx="516" cy="216" r="2.2" fill="#ffffff" opacity="0.12"/><circle cx="516" cy="276" r="2.2" fill="#ffffff" opacity="0.12"/><circle cx="516" cy="336" r="2.2" fill="#ffffff" opacity="0.12"/><circle cx="516" cy="396" r="2.2" fill="#ffffff" opacity="0.12"/><circle cx="516" cy="456" r="2.2" fill="#ffffff" opacity="0.12"/><circle cx="516" cy="516" r="2.2" fill="#ffffff" opacity="0.12"/><circle cx="516" cy="576" r="2.2" fill="#ffffff" opacity="0.12"/><circle cx="576" cy="36" r="2.2" fill="#ffffff" opacity="0.12"/><circle cx="576" cy="96" r="2.2" fill="#ffffff" opacity="0.12"/><circle cx="576" cy="156" r="2.2" fill="#ffffff" opacity="0.12"/><circle cx="576" cy="216" r="2.2" fill="#ffffff" opacity="0.12"/><circle cx="576" cy="276" r="2.2" fill="#ffffff" opacity="0.12"/><circle cx="576" cy="336" r="2.2" fill="#ffffff" opacity="0.12"/><circle cx="576" cy="396" r="2.2" fill="#ffffff" opacity="0.12"/><circle cx="576" cy="456" r="2.2" fill="#ffffff" opacity="0.12"/><circle cx="576" cy="516" r="2.2" fill="#ffffff" opacity="0.12"/><circle cx="576" cy="576" r="2.2" fill="#ffffff" opacity="0.12"/><circle cx="636" cy="36" r="2.2" fill="#ffffff" opacity="0.12"/><circle cx="636" cy="96" r="2.2" fill="#ffffff" opacity="0.12"/><circle cx="636" cy="156" r="2.2" fill="#ffffff" opacity="0.12"/><circle cx="636" cy="216" r="2.2" fill="#ffffff" opacity="0.12"/><circle cx="636" cy="276" r="2.2" fill="#ffffff" opacity="0.12"/><circle cx="636" cy="336" r="2.2" fill="#ffffff" opacity="0.12"/><circle cx="636" cy="396" r="2.2" fill="#ffffff" opacity="0.12"/><circle cx="636" cy="456" r="2.2" fill="#ffffff" opacity="0.12"/><circle cx="636" cy="516" r="2.2" fill="#ffffff" opacity="0.12"/><circle cx="636" cy="576" r="2.2" fill="#ffffff" opacity="0.12"/><circle cx="696" cy="36" r="2.2" fill="#ffffff" opacity="0.12"/><circle cx="696" cy="96" r="2.2" fill="#ffffff" opacity="0.12"/><circle cx="696" cy="156" r="2.2" fill="#ffffff" opacity="0.12"/><circle cx="696" cy="216" r="2.2" fill="#ffffff" opacity="0.12"/><circle cx="696" cy="276" r="2.2" fill="#ffffff" opacity="0.12"/><circle cx="696" cy="336" r="2.2" fill="#ffffff" opacity="0.12"/><circle cx="696" cy="396" r="2.2" fill="#ffffff" opacity="0.12"/><circle cx="696" cy="456" r="2.2" fill="#ffffff" opacity="0.12"/><circle cx="696" cy="516" r="2.2" fill="#ffffff" opacity="0.12"/><circle cx="696" cy="576" r="2.2" fill="#ffffff" opacity="0.12"/><circle cx="756" cy="36" r="2.2" fill="#ffffff" opacity="0.12"/><circle cx="756" cy="96" r="2.2" fill="#ffffff" opacity="0.12"/><circle cx="756" cy="156" r="2.2" fill="#ffffff" opacity="0.12"/><circle cx="756" cy="216" r="2.2" fill="#ffffff" opacity="0.12"/><circle cx="756" cy="276" r="2.2" fill="#ffffff" opacity="0.12"/><circle cx="756" cy="336" r="2.2" fill="#ffffff" opacity="0.12"/><circle cx="756" cy="396" r="2.2" fill="#ffffff" opacity="0.12"/><circle cx="756" cy="456" r="2.2" fill="#ffffff" opacity="0.12"/><circle cx="756" cy="516" r="2.2" fill="#ffffff" opacity="0.12"/><circle cx="756" cy="576" r="2.2" fill="#ffffff" opacity="0.12"/></g>
    <rect width="800" height="600" fill="url(#sheen-conference-2)"/>
    <rect width="800" height="600" filter="url(#grain-conference-2)" opacity="0.05"/>
    <g font-family="'Instrument Sans','Segoe UI',system-ui,sans-serif">
      <rect x="48" y="476" width="34" height="3" rx="1.5" fill="#ffffff" opacity="0.85"/>
      <text x="92" y="481" font-size="20" font-weight="600" fill="#ffffff" opacity="0.75" letter-spacing="5">EVENT</text>
      <text x="46" y="540" font-size="62" font-weight="700" fill="#ffffff" letter-spacing="-1">Conference</text>
    </g>
  </g>
</svg>