<svg xmlns="http://www.w3.org/2000/svg" viewBox="0 0 800 600" width="800" height="600" role="img" aria-label="Conference event">
  <defs>
    <linearGradient id="bg-conference-3" x1="0" y1="0" x2="1" y2="0">
      <stop offset="0" stop-color="#1e3a8a"/>
      <stop offset="0.55" stop-color="#2563eb"/>
      <stop offset="1" stop-color="#4f46e5"/>
    </linearGradient>
    <radialGradient id="glow-conference-3" cx="0.5" cy="0.5" r="0.5">
      <stop offset="0" stop-color="#ffffff" stop-opacity="0.55"/>
      <stop offset="1" stop-color="#ffffff" stop-opacity="0"/>
    </radialGradient>
    <linearGradient id="sheen-conference-3" x1="0" y1="0" x2="0" y2="1">
      <stop offset="0" stop-color="#ffffff" stop-opacity="0.18"/>
      <stop offset="0.5" stop-color="#ffffff" stop-opacity="0"/>
      <stop offset="1" stop-color="#000000" stop-opacity="0.28"/>
    </linearGradient>
    <filter id="soft-conference-3" x="-50%" y="-50%" width="200%" height="200%">
      <feGaussianBlur stdDeviation="60"/>
    </filter>
    <filter id="grain-conference-3">
      <feTurbulence type="fractalNoise" baseFrequency="0.9" numOctaves="2" stitchTiles="stitch" result="n"/>
      <feColorMatrix in="n" type="saturate" values="0"/>
    </filter>
    <clipPath id="clip-conference-3"><rect width="800" height="600"/></clipPath>
  </defs>

  <g clip-path="url(#clip-conference-3)">
    <rect width="800" height="600" fill="url(#bg-conference-3)"/>
    <circle cx="400" cy="90" r="260" fill="url(#glow-conference-3)" filter="url(#soft-conference-3)"/>
    <circle cx="400" cy="560" r="220" fill="url(#glow-conference-3)" filter="url(#soft-conference-3)" opacity="0.7"/>
    <g opacity="0.9"><circle cx="12" cy="12" r="2.2" fill="#ffffff" opacity="0.12"/><circle cx="12" cy="72" r="2.2" fill="#ffffff" opacity="0.12"/><circle cx="12" cy="132" r="2.2" fill="#ffffff" opacity="0.12"/><circle cx="12" cy="192" r="2.2" fill="#ffffff" opacity="0.12"/><circle cx="12" cy="252" r="2.2" fill="#ffffff" opacity="0.12"/><circle cx="12" cy="312" r="2.2" fill="#ffffff" opacity="0.12"/><circle cx="12" cy="372" r="2.2" fill="#ffffff" opacity="0.12"/><circle cx="12" cy="432" r="2.2" fill="#ffffff" opacity="0.12"/><circle cx="12" cy="492" r="2.2" fill="#ffffff" opacity="0.12"/><circle cx="12" cy="552" r="2.2" fill="#ffffff" opacity="0.12"/><circle cx="72" cy="12" r="2.2" fill="#ffffff" opacity="0.12"/><circle cx="72" cy="72" r="2.2" fill="#ffffff" opacity="0.12"/><circle cx="72" cy="132" r="2.2" fill="#ffffff" opacity="0.12"/><circle cx="72" cy="192" r="2.2" fill="#ffffff" opacity="0.12"/><circle cx="72" cy="252" r="2.2" fill="#ffffff" opacity="0.12"/><circle cx="72" cy="312" r="2.2" fill="#ffffff" opacity="0.12"/><circle cx="72" cy="372" r="2.2" fill="#ffffff" opacity="0.12"/><circle cx="72" cy="432" r="2.2" fill="#ffffff" opacity="0.12"/><circle cx="72" cy="492" r="2.2" fill="#ffffff" opacity="0.12"/><circle cx="72" cy="552" r="2.2" fill="#ffffff" opacity="0.12"/><circle cx="132" cy="12" r="2.2" fill="#ffffff" opacity="0.12"/><circle cx="132" cy="72" r="2.2" fill="#ffffff" opacity="0.12"/><circle cx="132" cy="132" r="2.2" fill="#ffffff" opacity="0.12"/><circle cx="132" cy="192" r="2.2" fill="#ffffff" opacity="0.12"/><circle cx="132" cy="252" r="2.2" fill="#ffffff" opacity="0.12"/><circle cx="132" cy="312" r="2.2" fill="#ffffff" opacity="0.12"/><circle cx="132" cy="372" r="2.2" fill="#ffffff" opacity="0.12"/><circle cx="132" cy="432" r="2.2" fill="#ffffff" opacity="0.12"/><circle cx="132" cy="492" r="2.2" fill="#ffffff" opacity="0.12"/><circle cx="132" cy="552" r="2.2" fill="#ffffff" opacity="0.12"/><circle cx="192" cy="12" r="2.2" fill="#ffffff" opacity="0.12"/><circle cx="192" cy="72" r="2.2" fill="#ffffff" opacity="0.12"/><circle cx="192" cy="132" r="2.2" fill="#ffffff" opacity="0.12"/><circle cx="192" cy="192" r="2.2" fill="#ffffff" opacity="0.12"/><circle cx="192" cy="252" r="2.2" fill="#ffffff" opacity="0.12"/><circle cx="192" cy="312" r="2.2" fill="#ffffff" opacity="0.12"/><circle cx="192" cy="372" r="2.2" fill="#ffffff" opacity="0.12"/><circle cx="192" cy="432" r="2.2" fill="#ffffff" opacity="0.12"/><circle cx="192" cy="492" r="2.2" fill="#ffffff" opacity="0.12"/><circle cx="192" cy="552" r="2.2" fill="#ffffff" opacity="0.12"/><circle cx="252" cy="12" r="2.2" fill="#ffffff" opacity="0.12"/><circle cx="252" cy="72" r="2.2" fill="#ffffff" opacity="0.12"/><circle cx="252" cy="132" r="2.2" fill="#ffffff" opacity="0.12"/><circle cx="252" cy="192" r="2.2" fill="#ffffff" opacity="0.12"/><circle cx="252" cy="252" r="2.2" fill="#ffffff" opacity="0.12"/><circle cx="252" cy="312" r="2.2" fill="#ffffff" opacity="0.12"/><circle cx="252" cy="372" r="2.2" fill="#ffffff" opacity="0.12"/><circle cx="252" cy="432" r="2.2" fill="#ffffff" opacity="0.12"/><circle cx="252" cy="492" r="2.2" fill="#ffffff" opacity="0.12"/><circle cx="252" cy="552" r="2.2" fill="#ffffff" opacity="0.12"/><circle cx="312" cy="12" r="2.2" fill="#ffffff" opacity="0.12"/><circle cx="312" cy="72" r="2.2" fill="#ffffff" opacity="0.12"/><circle cx="312" cy="132" r="2.2" fill="#ffffff" opacity="0.12"/><circle cx="312" cy="192" r="2.2" fill="#ffffff" opacity="0.12"/><circle cx="312" cy="252" r="2.2" fill="#ffffff" opacity="0.12"/><circle cx="312" cy="312" r="2.2" fill="#ffffff" opacity="0.12"/><circle cx="312" cy="372" r="2.2" fill="#ffffff" opacity="0.12"/><circle cx="312" cy="432" r="2.2" fill="#ffffff" opacity="0.12"/><circle cx="312" cy="492" r="2.2" fill="#ffffff" opacity="0.12"/><circle cx="312" cy="552" r="2.2" fill="#ffffff" opacity="0.12"/><circle cx="372" cy="12" r="2.2" fill="#ffffff" opacity="0.12"/><circle cx="372" cy="72" r="2.2" fill="#ffffff" opacity="0.12"/><circle cx="372" cy="132" r="2.2" fill="#ffffff" opacity="0.12"/><circle cx="372" cy="192" r="2.2" fill="#ffffff" opacity="0.12"/><circle cx="372" cy="252" r="2.2" fill="#ffffff" opacity="0.12"/><circle cx="372" cy="312" r="2.2" fill="#ffffff" opacity="0.12"/><circle cx="372" cy="372" r="2.2" fill="#ffffff" opacity="0.12"/><circle cx="372" cy="432" r="2.2" fill="#ffffff" opacity="0.12"/><circle cx="372" cy="492" r="2.2" fill="#ffffff" opacity="0.12"/><circle cx="372" cy="552" r="2.2" fill="#ffffff" opacity="0.12"/><circle cx="432" cy="12" r="2.2" fill="#ffffff" opacity="0.12"/><circle cx="432" cy="72" r="2.2" fill="#ffffff" opacity="0.12"/><circle cx="432" cy="132" r="2.2" fill="#ffffff" opacity="0.12"/><circle cx="432" cy="192" r="2.2" fill="#ffffff" opacity="0.12"/><circle cx="432" cy="252" r="2.2" fill="#ffffff" opacity="0.12"/><circle cx="432" cy="312" r="2.2" fill="#ffffff" opacity="0.12"/><circle cx="432" cy="372" r="2.2" fill="#ffffff" opacity="0.12"/><circle cx="432" cy="432" r="2.2" fill="#ffffff" opacity="0.12"/><circle cx="432" cy="492" r="2.2" fill="#ffffff" opacity="0.12"/><circle cx="432" cy="552" r="2.2" fill="#ffffff" opacity="0.12"/><circle cx="492" cy="12" r="2.2" fill="#ffffff" opacity="0.12"/><circle cx="492" cy="72" r="2.2" fill="#ffffff" opacity="0.12"/><circle cx="492" cy="132" r="2.2" fill="#ffffff" opacity="0.12"/><circle cx="492" cy="192" r="2.2" fill="#ffffff" opacity="0.12"/><circle cx="492" cy="252" r="2.2" fill="#ffffff" opacity="0.12"/><circle cx="492" cy="312" r="2.2" fill="#ffffff" opacity="0.12"/><circle cx="492" cy="372" r="2.2" fill="#ffffff" opacity="0.12"/><circle cx="492" cy="432" r="2.2" fill="#ffffff" opacity="0.12"/><circle cx="492" cy="492" r="2.2" fill="#ffffff" opacity="0.12"/><circle cx="492" cy="552" r="2.2" fill="#ffffff" opacity="0.12"/><circle cx="552" cy="12" r="2.2" fill="#ffffff" opacity="0.12"/><circle cx="552" cy="72" r="2.2" fill="#ffffff" opacity="0.12"/><circle cx="552" cy="132" r="2.2" fill="#ffffff" opacity="0.12"/><circle cx="552" cy="192" r="2.2" fill="#ffffff" opacity="0.12"/><circle cx="552" cy="252" r="2.2" fill="#ffffff" opacity="0.12"/><circle cx="552" cy="312" r="2.2" fill="#ffffff" opacity="0.12"/><circle cx="552" cy="372" r="2.2" fill="#ffffff" opacity="0.12"/><circle cx="552" cy="432" r="2.2" fill="#ffffff" opacity="0.12"/><circle cx="552" cy="492" r="2.2" fill="#ffffff" opacity="0.12"/><circle cx="552" cy="552" r="2.2" fill="#ffffff" opacity="0.12"/><circle cx="612" cy="12" r="2.2" fill="#ffffff" opacity="0.12"/><circle cx="612" cy="72" r="2.2" fill="#ffffff" opacity="0.12"/><circle cx="612" cy="132" r="2.2" fill="#ffffff" opacity="0.12"/><circle cx="612" cy="192" r="2.2" fill="#ffffff" opacity="0.12"/><circle cx="612" cy="252" r="2.2" fill="#ffffff" opacity="0.12"/><circle cx="612" cy="312" r="2.2" fill="#ffffff" opacity="0.12"/><circle cx="612" cy="372" r="2.2" fill="#ffffff" opacity="0.12"/><circle cx="612" cy="432" r="2.2" fill="#ffffff" opacity="0.12"/><circle cx="612" cy="492" r="2.2" fill="#ffffff" opacity="0.12"/><circle cx="612" cy="552" r="2.2" fill="#ffffff" opacity="0.12"/><circle cx="672" cy="12" r="2.2" fill="#ffffff" opacity="0.12"/><circle cx="672" cy="72" r="2.2" fill="#ffffff" opacity="0.12"/><circle cx="672" cy="132" r="2.2" fill="#ffffff" opacity="0.12"/><circle cx="672" cy="192" r="2.2" fill="#ffffff" opacity="0.12"/><circle cx="672" cy="252" r="2.2" fill="#ffffff" opacity="0.12"/><circle cx="672" cy="312" r="2.2" fill="#ffffff" opacity="0.12"/><circle cx="672" cy="372" r="2.2" fill="#ffffff" opacity="0.12"/><circle cx="672" cy="432" r="2.2" fill="#ffffff" opacity="0.12"/><circle cx="672" cy="492" r="2.2" fill="#ffffff" opacity="0.12"/><circle cx="672" cy="552" r="2.2" fill="#ffffff" opacity="0.12"/><circle cx="732" cy="12" r="2.2" fill="#ffffff" opacity="0.12"/><circle cx="732" cy="72" r="2.2" fill="#ffffff" opacity="0.12"/><circle cx="732" cy="132" r="2.2" fill="#ffffff" opacity="0.12"/><circle cx="732" cy="192" r="2.2" fill="#ffffff" opacity="0.12"/><circle cx="732" cy="252" r="2.2" fill="#ffffff" opacity="0.12"/><circle cx="732" cy="312" r="2.2" fill="#ffffff" opacity="0.12"/><circle cx="732" cy="372" r="2.2" fill="#ffffff" opacity="0.12"/><circle cx="732" cy="432" r="2.2" fill="#ffffff" opacity="0.12"/><circle cx="732" cy="492" r="2.2" fill="#ffffff" opacity="0.12"/><circle cx="732" cy="552" r="2.2" fill="#ffffff" opacity="0.12"/><circle cx="792" cy="12" r="2.2" fill="#ffffff" opacity="0.12"/><circle cx="792" cy="72" r="2.2" fill="#ffffff" opacity="0.12"/><circle cx="792" cy="132" r="2.2" fill="#ffffff" opacity="0.12"/><circle cx="792" cy="192" r="2.2" fill="#ffffff" opacity="0.12"/><circle cx="792" cy="252" r="2.2" fill="#ffffff" opacity="0.12"/><circle cx="792" cy="312" r="2.2" fill="#ffffff" opacity="0.12"/><circle cx="792" cy="372" r="2.2" fill="#ffffff" opacity="0.12"/><circle cx="792" cy="432" r="2.2" fill="#ffffff" opacity="0.12"/><circle cx="792" cy="492" r="2.2" fill="#ffffff" opacity="0.12"/><circle cx="792" cy="552" r="2.2" fill="#ffffff" opacity="0.12"/></g>
    <rect width="800" height="600" fill="url(#sheen-conference-3)"/>
    <rect width="800" height="600" filter="url(#grain-conference-3)" opacity="0.05"/>
    <g font-family="'Instrument Sans','Segoe UI',system-ui,sans-serif">
      <rect x="48" y="476" width="34" height="3" rx="1.5" fill="#ffffff" opacity="0.85"/>
      <text x="92" y="481" font-size="20" font-weight="600" fill="#ffffff" opacity="0.75" letter-spacing="5">EVENT</text>
      <text x="46" y="540" font-size="62" font-weight="700" fill="#ffffff" letter-spacing="-1">Conference</text>
    </g>
  </g>
</svg>